<svg width="43" height="43" viewBox="0 0 43 43" fill="none" xmlns="http://www.w3.org/2000/svg">
<g clip-path="url(#clip0_2_1462)">
<path d="M37.2667 12.8104C37.2632 9.64559 34.6982 7.08057 31.5334 7.07707H29.3512C28.9803 3.01782 25.5765 -0.0895996 21.5001 -0.0895996C17.4237 -0.0895996 14.0199 3.01782 13.6489 7.07707H11.4667C8.30017 7.07707 5.7334 9.64384 5.7334 12.8104C5.7334 15.977 8.30017 18.5437 11.4667 18.5437H19.3501V17.1104H11.4667C9.09207 17.1104 7.16673 15.1851 7.16673 12.8104C7.16673 10.4357 9.09207 8.5104 11.4667 8.5104H15.0501V7.79373C15.0501 4.2314 17.9377 1.34373 21.5001 1.34373C25.0624 1.34373 27.9501 4.2314 27.9501 7.79373V8.5104H31.5334C33.9081 8.5104 35.8334 10.4357 35.8334 12.8104C35.8334 15.1851 33.9081 17.1104 31.5334 17.1104H23.6501V18.5437H31.5334C34.6982 18.5402 37.2632 15.9752 37.2667 12.8104Z" fill="#910078"/>
<path d="M34.4001 40.7604V28.5771C34.3987 27.3901 33.437 26.4285 32.2501 26.4271H30.8167V24.8618C31.7598 24.5301 32.3488 23.5908 32.2364 22.5974C32.1241 21.6039 31.3399 20.8197 30.3464 20.7074C29.353 20.595 28.4137 21.184 28.082 22.1271H22.2167V13.1071L23.86 14.7504L24.8734 13.737L21.5001 10.3636L18.1267 13.737L19.1401 14.7504L20.7834 13.1071V22.1271H14.9181C14.5864 21.184 13.6472 20.5947 12.6537 20.7074C11.6602 20.8197 10.876 21.6036 10.7637 22.597C10.6514 23.5905 11.2403 24.5301 12.1834 24.8615V27.1437H7.8834C6.69642 27.1451 5.7348 28.1067 5.7334 29.2937V37.8937C5.7348 39.0807 6.69642 40.0423 7.8834 40.0437H12.1834V41.4771H10.0334V42.9104H15.7667V41.4771H13.6167V40.0437H17.9167C19.1037 40.0423 20.0653 39.0807 20.0667 37.8937V29.2937C20.0653 28.1067 19.1037 27.1451 17.9167 27.1437H13.6167V24.8618C14.2239 24.6452 14.7015 24.1675 14.9181 23.5604H28.082C28.2986 24.1675 28.7763 24.6452 29.3834 24.8615V26.4271H25.0834C23.8964 26.4285 22.9348 27.3901 22.9334 28.5771V40.7604C22.9348 41.9474 23.8964 42.909 25.0834 42.9104H32.2501C33.437 42.909 34.3987 41.9474 34.4001 40.7604ZM18.6334 37.8937C18.633 38.2895 18.3125 38.61 17.9167 38.6104H7.8834C7.48762 38.61 7.16708 38.2895 7.16673 37.8937V36.4604H18.6334V37.8937ZM17.9167 28.5771C18.3125 28.5774 18.633 28.898 18.6334 29.2937V35.0271H7.16673V29.2937C7.16708 28.898 7.48762 28.5774 7.8834 28.5771H17.9167ZM12.9001 23.5604C12.5043 23.5604 12.1834 23.2395 12.1834 22.8437C12.1834 22.448 12.5043 22.1271 12.9001 22.1271C13.2958 22.1271 13.6167 22.448 13.6167 22.8437C13.6164 23.2395 13.2958 23.56 12.9001 23.5604ZM30.1001 22.1271C30.4958 22.1271 30.8167 22.448 30.8167 22.8437C30.8167 23.2395 30.4958 23.5604 30.1001 23.5604C29.7043 23.5604 29.3834 23.2395 29.3834 22.8437C29.3838 22.448 29.7043 22.1274 30.1001 22.1271ZM24.3667 28.5771C24.3671 28.1813 24.6876 27.8607 25.0834 27.8604H32.2501C32.6458 27.8607 32.9664 28.1813 32.9667 28.5771V37.8937H24.3667V28.5771ZM24.3667 40.7604V39.3271H32.9667V40.7604C32.9664 41.1562 32.6458 41.4767 32.2501 41.4771H25.0834C24.6876 41.4767 24.3671 41.1562 24.3667 40.7604Z" fill="#910078"/>
</g>
<defs>
<clipPath id="clip0_2_1462">
<rect width="43" height="43" fill="white"/>
</clipPath>
</defs>
</svg>
