<svg width="41" height="41" viewBox="0 0 41 41" fill="none" xmlns="http://www.w3.org/2000/svg">
<path d="M28.8281 0.640625H12.1719C11.4925 0.641515 10.8413 0.911778 10.3609 1.39215C9.88053 1.87252 9.61026 2.52378 9.60938 3.20312V37.7969C9.61026 38.4762 9.88053 39.1275 10.3609 39.6079C10.8413 40.0882 11.4925 40.3585 12.1719 40.3594H28.8281C29.5075 40.3585 30.1587 40.0882 30.6391 39.6079C31.1195 39.1275 31.3897 38.4762 31.3906 37.7969V3.20312C31.3897 2.52378 31.1195 1.87252 30.6391 1.39215C30.1587 0.911778 29.5075 0.641515 28.8281 0.640625ZM23.4981 1.92188L23.1378 3.20312H17.7974L17.4771 1.92188H23.4981ZM30.1094 37.7969C30.1089 38.1365 29.9738 38.4622 29.7336 38.7024C29.4934 38.9426 29.1678 39.0777 28.8281 39.0781H12.1719C11.8322 39.0777 11.5066 38.9426 11.2664 38.7024C11.0262 38.4622 10.8911 38.1365 10.8906 37.7969V3.20312C10.8911 2.86345 11.0262 2.53782 11.2664 2.29764C11.5066 2.05745 11.8322 1.92232 12.1719 1.92188H16.1558L16.6755 3.9991C16.7101 4.13769 16.7901 4.26073 16.9027 4.34866C17.0153 4.43658 17.154 4.48435 17.2969 4.48438H23.623C23.7627 4.48437 23.8984 4.43877 24.0097 4.35449C24.1211 4.27022 24.2018 4.15189 24.2396 4.01752L24.829 1.92188H28.8281C29.1678 1.92232 29.4934 2.05745 29.7336 2.29764C29.9738 2.53782 30.1089 2.86345 30.1094 3.20312V37.7969Z" fill="#6E00FA"/>
<path d="M17.2969 36.5156H12.8125C12.6426 36.5156 12.4796 36.5831 12.3595 36.7033C12.2394 36.8234 12.1719 36.9863 12.1719 37.1562C12.1719 37.3262 12.2394 37.4891 12.3595 37.6092C12.4796 37.7294 12.6426 37.7969 12.8125 37.7969H17.2969C17.4668 37.7969 17.6297 37.7294 17.7499 37.6092C17.87 37.4891 17.9375 37.3262 17.9375 37.1562C17.9375 36.9863 17.87 36.8234 17.7499 36.7033C17.6297 36.5831 17.4668 36.5156 17.2969 36.5156Z" fill="#6E00FA"/>
<path d="M19.8594 36.5156H19.2188C19.0488 36.5156 18.8859 36.5831 18.7658 36.7033C18.6456 36.8234 18.5781 36.9863 18.5781 37.1562C18.5781 37.3262 18.6456 37.4891 18.7658 37.6092C18.8859 37.7294 19.0488 37.7969 19.2188 37.7969H19.8594C20.0293 37.7969 20.1922 37.7294 20.3124 37.6092C20.4325 37.4891 20.5 37.3262 20.5 37.1562C20.5 36.9863 20.4325 36.8234 20.3124 36.7033C20.1922 36.5831 20.0293 36.5156 19.8594 36.5156Z" fill="#6E00FA"/>
<path d="M22.7515 16.7475C22.6794 16.7043 22.5994 16.6756 22.5162 16.6632C22.433 16.6508 22.3481 16.655 22.2665 16.6754C22.1849 16.6958 22.1081 16.7321 22.0405 16.7821C21.9729 16.8322 21.9158 16.8951 21.8726 16.9673L18.0288 23.3735C17.9414 23.5192 17.9154 23.6937 17.9566 23.8585C17.9978 24.0234 18.1028 24.1651 18.2485 24.2525C18.3942 24.3399 18.5687 24.3659 18.7335 24.3246C18.8983 24.2834 19.0401 24.1784 19.1275 24.0327L22.9712 17.6265C23.0145 17.5543 23.0432 17.4744 23.0555 17.3912C23.0679 17.308 23.0638 17.2231 23.0434 17.1415C23.023 17.0599 22.9867 16.9831 22.9366 16.9155C22.8865 16.8479 22.8236 16.7908 22.7515 16.7475Z" fill="#6E00FA"/>
<path d="M24.844 16.8965C24.7914 16.8308 24.7264 16.7761 24.6527 16.7355C24.579 16.695 24.498 16.6693 24.4144 16.66C24.2455 16.6413 24.076 16.6904 23.9434 16.7966C23.8107 16.9028 23.7256 17.0574 23.7069 17.2263C23.6882 17.3952 23.7373 17.5646 23.8435 17.6973L26.0857 20.5L23.8435 23.3027C23.7373 23.4354 23.6882 23.6048 23.7069 23.7737C23.7256 23.9426 23.8107 24.0972 23.9434 24.2034C24.076 24.3096 24.2455 24.3587 24.4144 24.34C24.5833 24.3212 24.7378 24.2362 24.844 24.1035L27.4065 20.9004C27.4975 20.7868 27.547 20.6456 27.547 20.5C27.547 20.3544 27.4975 20.2132 27.4065 20.0996L24.844 16.8965Z" fill="#6E00FA"/>
<path d="M16.1559 24.1035C16.2621 24.2362 16.4167 24.3213 16.5856 24.34C16.7545 24.3587 16.9239 24.3096 17.0566 24.2034C17.1892 24.0972 17.2743 23.9427 17.293 23.7737C17.3117 23.6048 17.2626 23.4354 17.1564 23.3027L14.9142 20.5L17.1564 17.6973C17.209 17.6316 17.2481 17.5562 17.2716 17.4754C17.295 17.3945 17.3023 17.3099 17.293 17.2263C17.2837 17.1426 17.2581 17.0617 17.2175 16.9879C17.1769 16.9142 17.1222 16.8492 17.0566 16.7966C16.9909 16.7441 16.9155 16.7049 16.8346 16.6815C16.7538 16.658 16.6692 16.6508 16.5856 16.66C16.5019 16.6693 16.4209 16.695 16.3472 16.7355C16.2735 16.7761 16.2085 16.8308 16.1559 16.8965L13.5934 20.0996C13.5024 20.2132 13.4529 20.3545 13.4529 20.5C13.4529 20.6456 13.5024 20.7868 13.5934 20.9004L16.1559 24.1035Z" fill="#6E00FA"/>
</svg>
