<svg width="41" height="41" viewBox="0 0 41 41" fill="none" xmlns="http://www.w3.org/2000/svg">
<g clip-path="url(#clip0_2_1408)">
<path d="M20.5 0C9.19561 0 0 9.19649 0 20.5C0 31.8035 9.19561 41 20.5 41C31.8044 41 41 31.8035 41 20.5C41 9.19649 31.8044 0 20.5 0ZM20.5 39.2917C10.1382 39.2917 1.70831 30.8618 1.70831 20.5C1.70831 10.1382 10.1382 1.70831 20.5 1.70831C30.8618 1.70831 39.2917 10.1382 39.2917 20.5C39.2917 30.8618 30.8618 39.2917 20.5 39.2917Z" fill="#FF4E4E"/>
<path d="M16.2291 8.54163H11.1041C9.69107 8.54163 8.54163 9.69107 8.54163 11.1041V16.2291C8.54163 17.6422 9.69107 18.7916 11.1041 18.7916H16.2291C17.6422 18.7916 18.7916 17.6422 18.7916 16.2291V11.1041C18.7916 9.69107 17.6422 8.54163 16.2291 8.54163ZM17.0832 16.2291C17.0832 16.7004 16.6995 17.0833 16.229 17.0833H11.104C10.6336 17.0833 10.2499 16.7005 10.2499 16.2291V11.1041C10.2499 10.6329 10.6336 10.2499 11.104 10.2499H16.229C16.6995 10.2499 17.0832 10.6328 17.0832 11.1041V16.2291Z" fill="#FF4E4E"/>
<path d="M29.8959 8.54163H24.7709C23.3578 8.54163 22.2084 9.69107 22.2084 11.1041V16.2291C22.2084 17.6422 23.3578 18.7916 24.7709 18.7916H29.8959C31.3089 18.7916 32.4584 17.6422 32.4584 16.2291V11.1041C32.4584 9.69107 31.3089 8.54163 29.8959 8.54163ZM30.7501 16.2291C30.7501 16.7004 30.3663 17.0833 29.8959 17.0833H24.7709C24.3004 17.0833 23.9167 16.7005 23.9167 16.2291V11.1041C23.9167 10.6329 24.3004 10.2499 24.7709 10.2499H29.8959C30.3663 10.2499 30.7501 10.6328 30.7501 11.1041V16.2291Z" fill="#FF4E4E"/>
<path d="M16.2291 22.2083H11.1041C9.69107 22.2083 8.54163 23.3578 8.54163 24.7708V29.8958C8.54163 31.3089 9.69107 32.4583 11.1041 32.4583H16.2291C17.6422 32.4583 18.7916 31.3089 18.7916 29.8958V24.7708C18.7916 23.3578 17.6422 22.2083 16.2291 22.2083ZM17.0832 29.8958C17.0832 30.3671 16.6995 30.75 16.229 30.75H11.104C10.6336 30.75 10.2499 30.3672 10.2499 29.8958V24.7708C10.2499 24.2996 10.6336 23.9166 11.104 23.9166H16.229C16.6995 23.9166 17.0832 24.2995 17.0832 24.7708V29.8958Z" fill="#FF4E4E"/>
<path d="M29.8959 22.2083H24.7709C23.3578 22.2083 22.2084 23.3578 22.2084 24.7708V29.8958C22.2084 31.3089 23.3578 32.4583 24.7709 32.4583H29.8959C31.3089 32.4583 32.4584 31.3089 32.4584 29.8958V24.7708C32.4584 23.3578 31.3089 22.2083 29.8959 22.2083ZM30.7501 29.8958C30.7501 30.3671 30.3663 30.75 29.8959 30.75H24.7709C24.3004 30.75 23.9167 30.3672 23.9167 29.8958V24.7708C23.9167 24.2996 24.3004 23.9166 24.7709 23.9166H29.8959C30.3663 23.9166 30.7501 24.2995 30.7501 24.7708V29.8958Z" fill="#FF4E4E"/>
</g>
<defs>
<clipPath id="clip0_2_1408">
<rect width="41" height="41" fill="white"/>
</clipPath>
</defs>
</svg>
