<svg width="41" height="41" viewBox="0 0 34 34" fill="none" xmlns="http://www.w3.org/2000/svg">
<path d="M33.7653 0.234495C33.608 0.0773021 33.3934 -0.00790083 33.1703 0.000507359C32.9892 0.00699368 28.6782 0.180282 23.5537 1.99157C19.4473 3.44146 16.0245 5.51732 13.3804 8.1615C12.7879 8.75399 12.2113 9.38228 11.6597 10.035C9.04528 8.49606 6.95028 8.97861 5.62587 9.68738C2.57642 11.3194 0.688904 15.7506 0.688904 18.9201C0.689144 19.2439 0.884294 19.5359 1.18347 19.6598C1.28252 19.7009 1.38662 19.7208 1.48976 19.7208C1.69821 19.7208 1.90297 19.6394 2.05616 19.4863C3.66436 17.8781 5.64797 17.9787 6.29596 18.0639L6.5764 18.3443C6.0245 19.6576 5.57991 20.9635 5.25383 22.2336C5.13612 22.6932 5.17583 23.1796 5.3508 23.6246C4.57981 23.9799 3.83597 24.5016 3.1883 25.1492C1.12701 27.2106 0.708443 32.2342 0.691627 32.4471C0.673209 32.6807 0.757931 32.9106 0.923612 33.0763C1.0744 33.227 1.27836 33.3109 1.48976 33.3109C1.51074 33.3109 1.5318 33.3101 1.55287 33.3084C1.76571 33.2916 6.78948 32.8731 8.85077 30.8118C9.4982 30.1644 10.0198 29.4206 10.3751 28.6498C10.8462 28.835 11.3309 28.8578 11.7669 28.7461C13.0364 28.4201 14.3422 27.9757 15.6556 27.4237L15.9361 27.7041C16.0212 28.3522 16.1218 30.3358 14.5136 31.9439C14.2847 32.1729 14.2162 32.5173 14.3401 32.8165C14.464 33.1157 14.756 33.3108 15.0799 33.3108C18.2494 33.3108 22.6805 31.4233 24.3125 28.3738C25.0212 27.0496 25.5038 24.9546 23.9648 22.3401C24.6172 21.7887 25.2456 21.2121 25.8384 20.6194C28.4825 17.9752 30.5583 14.5524 32.0082 10.4464C33.8196 5.32153 33.9928 1.01045 33.9993 0.829475C34.0073 0.607258 33.9225 0.391768 33.7653 0.234495ZM2.47929 17.1977C2.97673 14.7903 4.42158 12.1486 6.38189 11.0994C7.69188 10.3984 9.12376 10.4671 10.6462 11.3005C9.34918 13.0063 8.2216 14.8441 7.28172 16.7848C7.26979 16.7774 7.12565 16.5962 6.85787 16.5358C6.74776 16.5109 4.62898 16.0552 2.47929 17.1977ZM7.71831 29.6792C6.61724 30.7803 4.03432 31.361 2.40177 31.5982C2.63896 29.9655 3.21977 27.3827 4.32076 26.2817C4.93736 25.6651 5.6523 25.1976 6.37092 24.9343L9.0657 27.6291C8.80241 28.3477 8.33499 29.0626 7.71831 29.6792ZM11.3691 27.1947C11.1373 27.254 10.8689 27.1669 10.6693 26.9676C9.63337 25.9317 9.2281 25.5264 9.10094 25.3993C8.86775 25.1661 8.29591 24.5943 7.03284 23.3311C6.83313 23.131 6.746 22.8627 6.80518 22.6313C7.06167 21.6325 7.39712 20.6076 7.80503 19.5729L14.4271 26.195C13.3922 26.603 12.3676 26.9383 11.3691 27.1947ZM22.9006 27.6181C21.8514 29.5784 19.2098 31.0233 16.8025 31.5206C17.5701 30.0763 17.7393 28.2376 17.4588 27.1227C17.3937 26.8637 17.2248 26.7335 17.2153 26.7182C19.1558 25.7783 20.9936 24.6508 22.6995 23.3537C23.5329 24.8763 23.6015 26.3084 22.9006 27.6181ZM24.7061 19.4869C23.9845 20.2084 23.2075 20.9055 22.3966 21.5587C20.4473 23.1282 18.3019 24.4577 16.0129 25.516L8.48401 17.9872C9.54233 15.6981 10.8718 13.5527 12.4411 11.6036C13.0949 10.7922 13.7919 10.0151 14.5132 9.29396C16.8855 6.92157 19.9472 5.03349 23.6157 3.67441L30.3256 10.3843C28.9667 14.0528 27.0786 17.1145 24.7061 19.4869ZM30.9018 8.69537L25.3046 3.09824C28.3541 2.15108 31.007 1.79642 32.3312 1.66893C32.2036 2.99334 31.8488 5.64625 30.9018 8.69537Z" fill="#0073C6"/>
</svg>
