<svg width="1440" height="1024" viewBox="0 0 1440 1024" fill="none" xmlns="http://www.w3.org/2000/svg">
<rect width="1440" height="1024" fill="#E5E5E5"/>
<g clip-path="url(#clip0_0_3)">
<rect width="1440" height="3992" transform="translate(0 -196)" fill="white"/>
<path d="M1391.75 149.469C1416.66 197.257 1464.48 206.913 1518.31 204.458C1616.54 199.979 1715.43 161.706 1786.18 105.211C1856.92 48.7156 1885.17 -27.7822 1891.78 -91.9502C1901.81 -189.217 1892.95 -208.237 1849.8 -273.558C1818.3 -321.235 1796.82 -344.369 1735.06 -385.357C1673.31 -426.346 1567.28 -486.302 1501.11 -419.22C1448.72 -366.118 1500.79 -231.672 1500.79 -231.672C1500.79 -231.672 1526.78 -169.98 1519.39 -119.961C1511.75 -68.1927 1451.68 -4.32801 1451.68 -4.32801C1451.68 -4.32801 1361.96 92.3056 1391.75 149.469Z" fill="#08D3BB"/>
<path d="M-405.272 654.353C-381.393 696.272 -402.245 750.23 -376.304 815.368C-368.96 833.811 -365.462 844.626 -355.166 861.597C-305.17 944.003 -232.405 989.937 -136.344 997.148C-69.7301 1002.15 9.19092 1001.54 38.2442 935.249C67.6032 868.257 51.9719 783.214 1.83911 709.2C-53.3557 627.713 -101.519 570.416 -190.756 513.317C-238.513 482.759 -333.943 440.251 -388.831 492.945C-430.618 533.062 -429.15 612.434 -405.272 654.353Z" fill="#1090CB"/>
<circle cx="978.5" cy="698.5" r="3.5" fill="#E7E7E7"/>
<circle cx="1032.5" cy="698.5" r="3.5" fill="#E7E7E7"/>
<circle cx="1086.5" cy="698.5" r="3.5" fill="#E7E7E7"/>
<circle cx="1140.5" cy="698.5" r="3.5" fill="#E7E7E7"/>
<circle cx="1194.5" cy="698.5" r="3.5" fill="#E7E7E7"/>
<circle cx="1248.5" cy="698.5" r="3.5" fill="#E7E7E7"/>
<circle cx="1302.5" cy="698.5" r="3.5" fill="#E7E7E7"/>
<circle cx="1356.5" cy="698.5" r="3.5" fill="#E7E7E7"/>
<circle cx="978.5" cy="740.5" r="3.5" fill="#E7E7E7"/>
<circle cx="1032.5" cy="740.5" r="3.5" fill="#E7E7E7"/>
<circle cx="1086.5" cy="740.5" r="3.5" fill="#E7E7E7"/>
<circle cx="1140.5" cy="740.5" r="3.5" fill="#E7E7E7"/>
<circle cx="1194.5" cy="740.5" r="3.5" fill="#E7E7E7"/>
<circle cx="1248.5" cy="740.5" r="3.5" fill="#E7E7E7"/>
<circle cx="1302.5" cy="740.5" r="3.5" fill="#E7E7E7"/>
<circle cx="1356.5" cy="740.5" r="3.5" fill="#E7E7E7"/>
<circle cx="978.5" cy="782.5" r="3.5" fill="#E7E7E7"/>
<circle cx="1032.5" cy="782.5" r="3.5" fill="#E7E7E7"/>
<circle cx="1086.5" cy="782.5" r="3.5" fill="#E7E7E7"/>
<circle cx="1140.5" cy="782.5" r="3.5" fill="#E7E7E7"/>
<circle cx="1194.5" cy="782.5" r="3.5" fill="#E7E7E7"/>
<circle cx="1248.5" cy="782.5" r="3.5" fill="#E7E7E7"/>
<circle cx="1302.5" cy="782.5" r="3.5" fill="#E7E7E7"/>
<circle cx="1356.5" cy="782.5" r="3.5" fill="#E7E7E7"/>
<circle cx="978.5" cy="824.5" r="3.5" fill="#E7E7E7"/>
<circle cx="1032.5" cy="824.5" r="3.5" fill="#E7E7E7"/>
<circle cx="1086.5" cy="824.5" r="3.5" fill="#E7E7E7"/>
<circle cx="1140.5" cy="824.5" r="3.5" fill="#E7E7E7"/>
<circle cx="1194.5" cy="824.5" r="3.5" fill="#E7E7E7"/>
<circle cx="1248.5" cy="824.5" r="3.5" fill="#E7E7E7"/>
<circle cx="1302.5" cy="824.5" r="3.5" fill="#E7E7E7"/>
<circle cx="1356.5" cy="824.5" r="3.5" fill="#E7E7E7"/>
<circle cx="978.5" cy="866.5" r="3.5" fill="#E7E7E7"/>
<circle cx="1032.5" cy="866.5" r="3.5" fill="#E7E7E7"/>
<circle cx="1086.5" cy="866.5" r="3.5" fill="#E7E7E7"/>
<circle cx="1140.5" cy="866.5" r="3.5" fill="#E7E7E7"/>
<circle cx="1194.5" cy="866.5" r="3.5" fill="#E7E7E7"/>
<circle cx="1248.5" cy="866.5" r="3.5" fill="#E7E7E7"/>
<circle cx="1302.5" cy="866.5" r="3.5" fill="#E7E7E7"/>
<circle cx="1356.5" cy="866.5" r="3.5" fill="#E7E7E7"/>
<circle cx="978.5" cy="908.5" r="3.5" fill="#E7E7E7"/>
<circle cx="1032.5" cy="908.5" r="3.5" fill="#E7E7E7"/>
<circle cx="1086.5" cy="908.5" r="3.5" fill="#E7E7E7"/>
<circle cx="1140.5" cy="908.5" r="3.5" fill="#E7E7E7"/>
<circle cx="1194.5" cy="908.5" r="3.5" fill="#E7E7E7"/>
<circle cx="1248.5" cy="908.5" r="3.5" fill="#E7E7E7"/>
<circle cx="1302.5" cy="908.5" r="3.5" fill="#E7E7E7"/>
<circle cx="1356.5" cy="908.5" r="3.5" fill="#E7E7E7"/>
<circle cx="978.5" cy="950.5" r="3.5" fill="#E7E7E7"/>
<circle cx="1032.5" cy="950.5" r="3.5" fill="#E7E7E7"/>
<circle cx="1086.5" cy="950.5" r="3.5" fill="#E7E7E7"/>
<circle cx="1140.5" cy="950.5" r="3.5" fill="#E7E7E7"/>
<circle cx="1194.5" cy="950.5" r="3.5" fill="#E7E7E7"/>
<circle cx="1248.5" cy="950.5" r="3.5" fill="#E7E7E7"/>
<circle cx="1302.5" cy="950.5" r="3.5" fill="#E7E7E7"/>
<circle cx="1356.5" cy="950.5" r="3.5" fill="#E7E7E7"/>
<circle cx="978.5" cy="992.5" r="3.5" fill="#E7E7E7"/>
<circle cx="1032.5" cy="992.5" r="3.5" fill="#E7E7E7"/>
<circle cx="1086.5" cy="992.5" r="3.5" fill="#E7E7E7"/>
<circle cx="1140.5" cy="992.5" r="3.5" fill="#E7E7E7"/>
<circle cx="1194.5" cy="992.5" r="3.5" fill="#E7E7E7"/>
<circle cx="1248.5" cy="992.5" r="3.5" fill="#E7E7E7"/>
<circle cx="1302.5" cy="992.5" r="3.5" fill="#E7E7E7"/>
<circle cx="1356.5" cy="992.5" r="3.5" fill="#E7E7E7"/>
</g>
<defs>
<clipPath id="clip0_0_3">
<rect width="1440" height="3992" fill="white" transform="translate(0 -196)"/>
</clipPath>
</defs>
</svg>
