<svg width="29" height="29" viewBox="0 0 29 29" fill="none" xmlns="http://www.w3.org/2000/svg">
<path d="M14.254 0.89209C9.04313 0.89209 4.80371 5.13151 4.80371 10.3423C4.80371 16.8918 14.2632 28.0796 14.2632 28.0796C14.2632 28.0796 23.7042 16.5697 23.7042 10.3423C23.7042 5.13151 19.4649 0.89209 14.254 0.89209ZM17.1053 13.1094C16.3191 13.8954 15.2866 14.2885 14.254 14.2885C13.2215 14.2885 12.1887 13.8954 11.4028 13.1094C9.83051 11.5373 9.83051 8.97914 11.4028 7.40687C12.1641 6.64521 13.1768 6.22571 14.254 6.22571C15.3311 6.22571 16.3436 6.64537 17.1053 7.40687C18.6776 8.97914 18.6776 11.5373 17.1053 13.1094Z" fill="black"/>
</svg>
