<svg width="11" height="11" viewBox="0 0 11 11" fill="none" xmlns="http://www.w3.org/2000/svg">
<g clip-path="url(#clip0_2_1246)">
<path d="M10.9973 11V10.9996H11.0001V6.96531C11.0001 4.99173 10.5752 3.47144 8.26795 3.47144C7.15879 3.47144 6.41445 4.0801 6.11058 4.65714H6.07849V3.65569H3.89087V10.9996H6.16879V7.36314C6.16879 6.40569 6.35029 5.47985 7.53599 5.47985C8.70429 5.47985 8.7217 6.57252 8.7217 7.42456V11H10.9973Z" fill="black"/>
<path d="M0.181396 3.65601H2.46206V10.9999H0.181396V3.65601Z" fill="black"/>
<path d="M1.32092 0C0.591708 0 0 0.591708 0 1.32092C0 2.05013 0.591708 2.65421 1.32092 2.65421C2.05013 2.65421 2.64183 2.05013 2.64183 1.32092C2.64138 0.591708 2.04967 0 1.32092 0Z" fill="black"/>
</g>
<defs>
<clipPath id="clip0_2_1246">
<rect width="11" height="11" fill="white"/>
</clipPath>
</defs>
</svg>
