<svg width="511" height="655" viewBox="0 0 511 655" fill="none" xmlns="http://www.w3.org/2000/svg">
<path d="M6.92396 599.545C31.8291 647.333 79.6514 656.989 133.484 654.534C231.71 650.055 330.605 611.782 401.349 555.287C472.094 498.792 500.339 422.294 506.952 358.126C516.976 260.859 508.121 241.839 464.966 176.518C433.468 128.841 411.986 105.707 350.234 64.7185C288.483 23.7297 182.454 -36.2258 116.278 30.8561C63.8945 83.9577 115.965 218.404 115.965 218.404C115.965 218.404 141.953 280.096 134.566 330.115C126.919 381.883 66.8537 445.748 66.8537 445.748C66.8537 445.748 -22.867 542.382 6.92396 599.545Z" fill="#08D3BB"/>
</svg>
