<svg width="33" height="33" viewBox="0 0 33 33" fill="none" xmlns="http://www.w3.org/2000/svg">
<g clip-path="url(#clip0_2_1068)">
<path d="M31.7197 15.6592L17.5987 1.53809C16.6069 0.546399 15.2885 0 13.886 0H3.00003C1.34543 0 0 1.34543 0 3.00003V13.886C0 15.2886 0.546399 16.607 1.53809 17.5987L15.6592 31.7197C16.4729 32.5335 17.5994 33 18.75 33C19.9006 33 21.027 32.5335 21.8408 31.7197L31.7197 21.8408C32.5334 21.0271 32.9999 19.9006 32.9999 18.75C32.9999 17.5994 32.5335 16.4729 31.7197 15.6592ZM30.6592 20.7803L20.7803 30.6592C19.711 31.7285 17.7891 31.7285 16.7198 30.6592L2.59861 16.5381C1.89035 15.8298 1.49998 14.8879 1.49998 13.886V3.00003C1.49998 2.17315 2.17308 1.50005 2.99995 1.50005H13.886C14.888 1.50005 15.8299 1.89042 16.5381 2.59868L30.6592 16.7198C31.1939 17.2544 31.5 17.9942 31.5 18.75C31.5 19.5059 31.1939 20.2456 30.6592 20.7803Z" fill="#5FC400"/>
<path d="M6.00002 3C4.3455 3 3 4.34543 3 6.00003C3 7.65462 4.3455 8.99998 6.00002 8.99998C7.65455 8.99998 9.00005 7.65455 9.00005 5.99995C9.00005 4.34536 7.65462 3 6.00002 3ZM6.00002 7.5C5.17315 7.5 4.50005 6.8269 4.50005 5.99995C4.50005 5.17308 5.17315 4.49998 6.00002 4.49998C6.8269 4.49998 7.5 5.17308 7.5 5.99995C7.50007 6.8269 6.82697 7.5 6.00002 7.5Z" fill="#5FC400"/>
<path d="M12.9507 15.0725C13.8281 14.1951 13.8281 12.7676 12.9507 11.8902C12.6585 11.598 12.6585 11.1219 12.9507 10.8304L13.4825 10.2994C13.763 10.0159 14.2574 10.0159 14.5423 10.2994C14.6836 10.4415 14.762 10.6297 14.762 10.8297C14.762 11.0303 14.6844 11.2179 14.5423 11.3592C14.2493 11.6522 14.2493 12.1268 14.5416 12.4205C14.8346 12.7135 15.3099 12.7127 15.6029 12.4212C16.0277 11.9964 16.2621 11.431 16.2621 10.8297C16.2621 10.2291 16.0277 9.66368 15.6029 9.23885C14.7533 8.38849 13.2694 8.39067 12.4213 9.23814L11.8895 9.76914C11.0135 10.6473 11.0135 12.0741 11.8902 12.9508C12.1824 13.2438 12.1824 13.7191 11.8902 14.0121L11.3592 14.5424C11.0772 14.8266 10.5843 14.8251 10.2994 14.5424C10.158 14.4003 10.0796 14.2121 10.0796 14.0121C10.0796 13.8114 10.1573 13.6232 10.2994 13.4826C10.5924 13.1896 10.5924 12.715 10.3001 12.4213C10.0071 12.1283 9.53176 12.129 9.23877 12.4206C8.81394 12.8454 8.57959 13.4108 8.57959 14.0121C8.57959 14.6127 8.81394 15.1781 9.23877 15.6029C9.6636 16.0277 10.229 16.2621 10.8296 16.2621C11.4309 16.2621 11.9964 16.0277 12.4204 15.6029L12.9507 15.0725Z" fill="#5FC400"/>
<path d="M17.7239 17.724C18.0169 17.431 18.0169 16.9564 17.7239 16.6635L16.6634 15.6029L18.2542 14.0121L19.8457 15.6029C20.1387 15.8959 20.6133 15.8959 20.9063 15.6029C21.1993 15.3099 21.1993 14.8353 20.9063 14.5424L18.7844 12.4213C18.4914 12.1283 18.0168 12.1283 17.7239 12.4213L12.4212 17.724C12.1282 18.017 12.1282 18.4916 12.4212 18.7846L14.5423 20.9064C14.6887 21.0529 14.8807 21.1261 15.0726 21.1261C15.2645 21.1261 15.4563 21.0529 15.6029 20.9064C15.8959 20.6134 15.8959 20.1388 15.6029 19.8459L14.012 18.2543L15.6029 16.6635L16.6634 17.724C16.8099 17.8705 17.0018 17.9438 17.1937 17.9438C17.3855 17.9437 17.5775 17.8704 17.7239 17.724Z" fill="#5FC400"/>
<path d="M20.9061 17.7231C20.9061 17.7238 20.9061 17.7238 20.9061 17.7238L17.723 20.9062C16.8477 21.7836 16.8477 23.2104 17.7237 24.0878C18.1625 24.5266 18.7388 24.7463 19.3145 24.7463C19.891 24.7463 20.4674 24.5266 20.9061 24.0878L24.0877 20.9062C24.9651 20.0287 24.9651 18.6013 24.0877 17.7231C23.2103 16.8472 21.7836 16.8472 20.9061 17.7231ZM23.0273 19.8457L19.8456 23.0274C19.5534 23.3196 19.0773 23.3211 18.7851 23.0274C18.4929 22.7351 18.4929 22.2591 18.7844 21.9668L21.9667 18.7852C22.2582 18.4922 22.7358 18.493 23.0273 18.7845C23.3195 19.0774 23.3195 19.5527 23.0273 19.8457Z" fill="#5FC400"/>
</g>
<defs>
<clipPath id="clip0_2_1068">
<rect width="33" height="33" fill="white"/>
</clipPath>
</defs>
</svg>
