<svg width="55" height="500" viewBox="0 0 55 610" fill="none" xmlns="http://www.w3.org/2000/svg">
<path d="M-391.591 0.394742C-445.452 -1.33151 -477.316 35.6128 -501.572 83.7334C-545.833 171.537 -560.967 276.494 -546.418 365.852C-531.868 455.21 -479.047 517.336 -426.364 554.563C-346.508 610.991 -325.59 612.6 -247.5 607.018C-190.503 602.944 -159.808 595.565 -93.8058 561.844C-27.8039 528.123 76.4386 465.113 50.4221 374.546C29.8276 302.855 -112.879 282.313 -112.879 282.313C-112.879 282.313 -179.389 274.713 -219.359 243.749C-260.729 211.701 -286.937 128.037 -286.937 128.037C-286.937 128.037 -327.164 2.45965 -391.591 0.394742Z" fill="#08D3BB"/>
</svg>
