<svg width="13" height="13" viewBox="0 0 13 13" fill="none" xmlns="http://www.w3.org/2000/svg">
<g clip-path="url(#clip0_2_1239)">
<path d="M13 2.46919C12.5166 2.68125 12.0014 2.82181 11.4644 2.89006C12.0169 2.56019 12.4386 2.04181 12.6368 1.417C12.1217 1.72412 11.5529 1.94106 10.9468 2.06213C10.4577 1.54131 9.76056 1.21875 9.00006 1.21875C7.52456 1.21875 6.33669 2.41638 6.33669 3.88456C6.33669 4.09581 6.35456 4.29894 6.39844 4.49231C4.18275 4.38425 2.22219 3.32231 0.905125 1.70463C0.675187 2.10356 0.540313 2.56019 0.540313 3.05175C0.540313 3.97475 1.01562 4.79294 1.72412 5.26662C1.29594 5.2585 0.875875 5.13419 0.52 4.93838C0.52 4.9465 0.52 4.95706 0.52 4.96762C0.52 6.26275 1.44381 7.3385 2.65525 7.58631C2.43831 7.64562 2.20187 7.67406 1.9565 7.67406C1.78587 7.67406 1.61362 7.66431 1.45194 7.62856C1.79725 8.684 2.77713 9.45994 3.94225 9.48512C3.0355 10.1944 1.88419 10.6218 0.637813 10.6218C0.41925 10.6218 0.209625 10.6121 0 10.5852C1.18056 11.3466 2.57969 11.7812 4.0885 11.7812C8.99275 11.7812 11.674 7.71875 11.674 4.19737C11.674 4.07956 11.6699 3.96581 11.6642 3.85288C12.1932 3.4775 12.6376 3.00869 13 2.46919Z" fill="black"/>
</g>
<defs>
<clipPath id="clip0_2_1239">
<rect width="13" height="13" fill="white"/>
</clipPath>
</defs>
</svg>
