<svg width="33" height="33" viewBox="0 0 41 41" fill="none" xmlns="http://www.w3.org/2000/svg">
<path d="M3.84375 3.20312H5.125V4.48438H3.84375V3.20312Z" fill="#4628A4"/>
<path d="M6.40625 3.20312H7.6875V4.48438H6.40625V3.20312Z" fill="#4628A4"/>
<path d="M8.96875 3.20312H10.25V4.48438H8.96875V3.20312Z" fill="#4628A4"/>
<path d="M4.48438 19.2188H18.5781C18.748 19.2188 18.911 19.1513 19.0311 19.0311C19.1513 18.911 19.2188 18.748 19.2188 18.5781V8.32812C19.2188 8.15822 19.1513 7.99528 19.0311 7.87513C18.911 7.75499 18.748 7.6875 18.5781 7.6875H4.48438C4.31447 7.6875 4.15153 7.75499 4.03138 7.87513C3.91124 7.99528 3.84375 8.15822 3.84375 8.32812V18.5781C3.84375 18.748 3.91124 18.911 4.03138 19.0311C4.15153 19.1513 4.31447 19.2188 4.48438 19.2188ZM5.125 8.96875H17.9375V17.9375H5.125V8.96875Z" fill="#4628A4"/>
<path d="M4.48438 31.3906H18.5781C18.748 31.3906 18.911 31.3231 19.0311 31.203C19.1513 31.0829 19.2188 30.9199 19.2188 30.75V21.1406C19.2188 20.9707 19.1513 20.8078 19.0311 20.6876C18.911 20.5675 18.748 20.5 18.5781 20.5H4.48438C4.31447 20.5 4.15153 20.5675 4.03138 20.6876C3.91124 20.8078 3.84375 20.9707 3.84375 21.1406V30.75C3.84375 30.9199 3.91124 31.0829 4.03138 31.203C4.15153 31.3231 4.31447 31.3906 4.48438 31.3906ZM5.125 21.7812H17.9375V30.1094H5.125V21.7812Z" fill="#4628A4"/>
<path d="M30.1094 31.3906H31.3906V32.6719H30.1094V31.3906Z" fill="#4628A4"/>
<path d="M35.2344 31.3906H36.5156V32.6719H35.2344V31.3906Z" fill="#4628A4"/>
<path d="M33.3125 35.875C32.9727 35.875 32.6468 35.74 32.4065 35.4997C32.1662 35.2595 32.0312 34.9336 32.0312 34.5938H30.75C30.75 35.2734 31.02 35.9251 31.5005 36.4057C31.9811 36.8863 32.6329 37.1562 33.3125 37.1562C33.9921 37.1562 34.6439 36.8863 35.1245 36.4057C35.605 35.9251 35.875 35.2734 35.875 34.5938H34.5938C34.5938 34.9336 34.4588 35.2595 34.2185 35.4997C33.9782 35.74 33.6523 35.875 33.3125 35.875Z" fill="#4628A4"/>
<path d="M14.4141 12.8971L9.92969 10.3346C9.83221 10.2783 9.72162 10.2487 9.60906 10.2488C9.4965 10.2488 9.38594 10.2785 9.28852 10.3349C9.19109 10.3913 9.11024 10.4724 9.0541 10.5699C8.99797 10.6675 8.96853 10.7781 8.96875 10.8907V16.0157C8.96853 16.1282 8.99797 16.2389 9.0541 16.3364C9.11024 16.434 9.19109 16.515 9.28852 16.5714C9.38594 16.6278 9.4965 16.6575 9.60906 16.6576C9.72162 16.6576 9.83221 16.628 9.92969 16.5717L14.4141 14.0092C14.512 13.9532 14.5935 13.8722 14.6501 13.7746C14.7067 13.6769 14.7366 13.5661 14.7366 13.4532C14.7366 13.3403 14.7067 13.2294 14.6501 13.1318C14.5935 13.0341 14.512 12.9532 14.4141 12.8971ZM10.25 14.9112V11.9951L12.8023 13.4532L10.25 14.9112Z" fill="#4628A4"/>
<path d="M33.9532 19.8594C34.0751 19.8594 34.1944 19.8247 34.2972 19.7594C34.4001 19.694 34.4821 19.6007 34.5338 19.4903C34.5854 19.3799 34.6045 19.2571 34.5888 19.1363C34.5732 19.0155 34.5233 18.9016 34.4452 18.8081L31.2421 14.9644C31.1851 14.8959 31.1145 14.8402 31.0348 14.8006C30.955 14.761 30.8679 14.7384 30.779 14.7344C30.6899 14.729 30.6008 14.7429 30.5176 14.7752C30.4344 14.8074 30.3593 14.8573 30.2972 14.9214L29.3574 15.8619L28.0332 14.318C27.9714 14.2507 27.8962 14.197 27.8125 14.1602C27.7288 14.1235 27.6384 14.1045 27.547 14.1045C27.4556 14.1045 27.3652 14.1235 27.2815 14.1602C27.1978 14.197 27.1226 14.2507 27.0608 14.318L23.217 18.8023C23.1375 18.8954 23.0862 19.0092 23.0693 19.1305C23.0525 19.2517 23.0707 19.3753 23.1219 19.4865C23.173 19.5977 23.255 19.6919 23.358 19.758C23.461 19.8241 23.5808 19.8593 23.7033 19.8594H33.9532ZM25.096 18.5781L27.547 15.7184L29.998 18.5781H25.096ZM30.7072 16.3238L32.5855 18.5781H31.6854L30.1934 16.8375L30.7072 16.3238Z" fill="#4628A4"/>
<path d="M39.0781 1.28125H1.92188C1.75197 1.28125 1.58903 1.34874 1.46888 1.46888C1.34874 1.58903 1.28125 1.75197 1.28125 1.92187V33.3125C1.28125 33.4824 1.34874 33.6453 1.46888 33.7655C1.58903 33.8856 1.75197 33.9531 1.92188 33.9531H26.9389C27.1046 35.5873 27.8916 37.0954 29.1375 38.1659C30.3833 39.2364 31.9927 39.7874 33.6332 39.7052C35.2737 39.623 36.82 38.9137 37.9525 37.724C39.085 36.5343 39.7173 34.9551 39.7188 33.3125V1.92187C39.7188 1.75197 39.6513 1.58903 39.5311 1.46888C39.411 1.34874 39.248 1.28125 39.0781 1.28125ZM33.3125 38.4375C32.2989 38.4375 31.308 38.1369 30.4652 37.5738C29.6224 37.0106 28.9655 36.2102 28.5776 35.2738C28.1897 34.3373 28.0882 33.3068 28.286 32.3127C28.4837 31.3185 28.9718 30.4053 29.6886 29.6886C30.4053 28.9718 31.3185 28.4837 32.3127 28.286C33.3068 28.0882 34.3373 28.1897 35.2738 28.5776C36.2102 28.9655 37.0106 29.6224 37.5738 30.4652C38.1369 31.308 38.4375 32.2989 38.4375 33.3125C38.436 34.6713 37.8955 35.9739 36.9347 36.9347C35.9739 37.8955 34.6713 38.436 33.3125 38.4375ZM27.773 30.1094H21.7812V8.96875H35.875V27.445C34.4336 26.812 32.8092 26.7339 31.3138 27.2257C29.8183 27.7175 28.5574 28.7445 27.773 30.1094ZM38.4375 29.4854C38.073 28.9987 37.6417 28.5658 37.1562 28.1997V8.32812C37.1562 8.15822 37.0888 7.99527 36.9686 7.87513C36.8485 7.75499 36.6855 7.6875 36.5156 7.6875H21.1406C20.9707 7.6875 20.8078 7.75499 20.6876 7.87513C20.5675 7.99527 20.5 8.15822 20.5 8.32812V30.75C20.5 30.9199 20.5675 31.0828 20.6876 31.203C20.8078 31.3231 20.9707 31.3906 21.1406 31.3906H27.2016C27.07 31.8075 26.982 32.2369 26.9389 32.6719H2.5625V6.40625H38.4375V29.4854ZM38.4375 5.125H2.5625V2.5625H38.4375V5.125Z" fill="#4628A4"/>
<path d="M6.40625 23.0625H16.6562V24.3438H6.40625V23.0625Z" fill="#4628A4"/>
<path d="M6.40625 25.625H16.6562V26.9062H6.40625V25.625Z" fill="#4628A4"/>
</svg>
